<svg width="512" height="512" xmlns="http://www.w3.org/2000/svg" preserveAspectRatio="xMidYMid meet" version="1.0">

 <g>
  <title>Layer 1</title>
  <path fill="#FFFFFB" id="svg_2" d="m406.50001,80.99999c-14.3,2.1 -29.8,4.4 -34.5,5.1c-6.9,0.9 -8.9,1.7 -11,3.8c-1.4,1.4 -32.40001,34.2 -68.90001,72.9l-66.5,70.30001l-39.1,-39c-21.5,-21.50001 -39.7,-39.10001 -40.5,-39.10001c-3.3,0 -72.5,10.2 -73.5,10.8c-0.5,0.4 -17.1,16.90001 -36.8,36.80001c-36.6,37 -37.2,37.7 -34.6,42.6c1,1.8 155.6,166.5 172.4,183.6l6.2,6.4l35.4,-0.1c31.9,-0.1 35.6,-0.3 37.6,-1.9c1.3,-0.9 54.3,-57.3 117.90001,-125.2c63.7,-67.9 121.5,-129.7 128.6,-137.20001c10.9,-11.7 12.8,-14.2 12.8,-16.9c0,-2.9 -3.6,-6.8 -34.7,-38.3c-19.2,-19.3 -35.9,-35.9 -37.3,-36.8c-3.2,-2.3 -2.6,-2.3 -33.5,2.2zm12.6,86.5c-2.1,2.2 -55.5,58.00001 -118.60001,124.00001c-63.1,66 -115.3,120.6 -116,121.3c-0.9,1 -18.3,-17 -82.4,-84.9l-81.2,-86.2l27.3,-27.4c15,-15 27.6,-27.2 28,-27.1c0.4,0.2 21.7,23.2 47.3,51.3c56,61.3 55.2,60.5 59.9,60.5c4.4,0 3.8,0.5 29.3,-26.6c10.9,-11.7 50.2,-53.4 87.3,-92.7l67.50001,-71.50001l27.7,27.6l27.8,27.7l-3.9,4z"/>
 </g>
</svg>